<svg fill="none" xmlns="http://www.w3.org/2000/svg">
<path d="M6.30012 11.2H7.70012V9.79997H6.30012V11.2ZM7.00012 -3.05176e-05C6.08087 -3.05176e-05 5.17062 0.18103 4.32134 0.532813C3.47206 0.884596 2.70038 1.40021 2.05037 2.05022C0.73762 3.36298 0.00012207 5.14345 0.00012207 6.99997C0.00012207 8.85648 0.73762 10.637 2.05037 11.9497C2.70038 12.5997 3.47206 13.1153 4.32134 13.4671C5.17062 13.8189 6.08087 14 7.00012 14C8.85664 14 10.6371 13.2625 11.9499 11.9497C13.2626 10.637 14.0001 8.85648 14.0001 6.99997C14.0001 6.08072 13.8191 5.17046 13.4673 4.32119C13.1155 3.47191 12.5999 2.70023 11.9499 2.05022C11.2999 1.40021 10.5282 0.884596 9.67891 0.532813C8.82963 0.18103 7.91937 -3.05176e-05 7.00012 -3.05176e-05ZM7.00012 12.6C3.91312 12.6 1.40012 10.087 1.40012 6.99997C1.40012 3.91297 3.91312 1.39997 7.00012 1.39997C10.0871 1.39997 12.6001 3.91297 12.6001 6.99997C12.6001 10.087 10.0871 12.6 7.00012 12.6ZM7.00012 2.79997C6.25752 2.79997 5.54532 3.09497 5.02022 3.62007C4.49512 4.14517 4.20012 4.85736 4.20012 5.59997H5.60012C5.60012 5.22867 5.74762 4.87257 6.01017 4.61002C6.27272 4.34747 6.62882 4.19997 7.00012 4.19997C7.37143 4.19997 7.72752 4.34747 7.99007 4.61002C8.25262 4.87257 8.40012 5.22867 8.40012 5.59997C8.40012 6.99997 6.30012 6.82497 6.30012 9.09997H7.70012C7.70012 7.52497 9.80012 7.34997 9.80012 5.59997C9.80012 4.85736 9.50512 4.14517 8.98002 3.62007C8.45492 3.09497 7.74273 2.79997 7.00012 2.79997Z" fill="#888888"/>
</svg>
