<svg fill="none" xmlns="http://www.w3.org/2000/svg">
<path d="M8.25 10C8.25 10.4142 8.58579 10.75 9 10.75C9.41421 10.75 9.75 10.4142 9.75 10L8.25 10ZM9.53033 0.46967C9.23744 0.176777 8.76256 0.176777 8.46967 0.46967L3.6967 5.24264C3.40381 5.53553 3.40381 6.01041 3.6967 6.3033C3.98959 6.59619 4.46447 6.59619 4.75736 6.3033L9 2.06066L13.2426 6.3033C13.5355 6.59619 14.0104 6.59619 14.3033 6.3033C14.5962 6.01041 14.5962 5.53553 14.3033 5.24264L9.53033 0.46967ZM9.75 10L9.75 1L8.25 1L8.25 10L9.75 10Z" fill="#B9B9B9"/>
<path d="M1 10V15C1 16.6569 2.34315 18 4 18H14C15.6569 18 17 16.6569 17 15V10" stroke="#B9B9B9" stroke-width="1.5" stroke-linecap="round"/>
</svg>
