<svg fill="none" xmlns="http://www.w3.org/2000/svg">
<path d="M13 5.00001H11.5V10L15.78 12.54L16.5 11.33L13 9.25001V5.00001ZM12.5 7.62939e-06C10.1131 7.62939e-06 7.82387 0.948219 6.13604 2.63605C4.44821 4.32387 3.5 6.61306 3.5 9.00001H0.5L4.46 13.03L8.5 9.00001H5.5C5.5 7.14349 6.2375 5.36301 7.55025 4.05026C8.86301 2.73751 10.6435 2.00001 12.5 2.00001C14.3565 2.00001 16.137 2.73751 17.4497 4.05026C18.7625 5.36301 19.5 7.14349 19.5 9.00001C19.5 10.8565 18.7625 12.637 17.4497 13.9498C16.137 15.2625 14.3565 16 12.5 16C10.57 16 8.82 15.21 7.56 13.94L6.14 15.36C7.77 17 10 18 12.5 18C14.8869 18 17.1761 17.0518 18.864 15.364C20.5518 13.6761 21.5 11.387 21.5 9.00001C21.5 6.61306 20.5518 4.32387 18.864 2.63605C17.1761 0.948219 14.8869 7.62939e-06 12.5 7.62939e-06Z" fill="#B9B9B9"/>
</svg>
